<svg xmlns="http://www.w3.org/2000/svg" version="1.1" xmlns:xlink="http://www.w3.org/1999/xlink" width="1274px" height="361px"><svg xmlns="http://www.w3.org/2000/svg" version="1.1" width="1274px" height="361px" style="shape-rendering:geometricPrecision; text-rendering:geometricPrecision; image-rendering:optimizeQuality; fill-rule:evenodd; clip-rule:evenodd" xmlns:xlink="http://www.w3.org/1999/xlink">
<g><path style="opacity:0.869" fill="#181919" d="M 1189.5,-0.5 C 1201.5,-0.5 1213.5,-0.5 1225.5,-0.5C 1225.5,1.5 1225.5,3.5 1225.5,5.5C 1220.5,5.5 1215.5,5.5 1210.5,5.5C 1210.5,18.8333 1210.5,32.1667 1210.5,45.5C 1208.17,45.5 1205.83,45.5 1203.5,45.5C 1203.5,32.1667 1203.5,18.8333 1203.5,5.5C 1198.83,5.5 1194.17,5.5 1189.5,5.5C 1189.5,3.5 1189.5,1.5 1189.5,-0.5 Z"></path></g>
<g><path style="opacity:0.876" fill="#181919" d="M 1230.5,-0.5 C 1233.83,-0.5 1237.17,-0.5 1240.5,-0.5C 1244.02,11.5739 1247.86,23.5739 1252,35.5C 1256.27,23.5141 1260.44,11.5141 1264.5,-0.5C 1267.5,-0.5 1270.5,-0.5 1273.5,-0.5C 1273.5,14.8333 1273.5,30.1667 1273.5,45.5C 1271.17,45.5 1268.83,45.5 1266.5,45.5C 1266.67,34.8281 1266.5,24.1615 1266,13.5C 1262.36,24.0933 1258.53,34.5933 1254.5,45C 1251.94,45.9181 1249.77,45.4181 1248,43.5C 1244.33,32.5 1240.67,21.5 1237,10.5C 1236.5,22.1619 1236.33,33.8286 1236.5,45.5C 1234.5,45.5 1232.5,45.5 1230.5,45.5C 1230.5,30.1667 1230.5,14.8333 1230.5,-0.5 Z"></path></g>
<g><path style="opacity:0.979" fill="#181919" d="M -0.5,200.5 C -0.5,138.167 -0.5,75.8333 -0.5,13.5C 4.28432,1.49869 12.951,-2.33464 25.5,2C 30.4005,3.90183 33.5671,7.40183 35,12.5C 35.3333,17.1667 35.6667,21.8333 36,26.5C 66.2592,1.57988 100.426,-5.58679 138.5,5C 180.539,20.3767 205.039,50.21 212,94.5C 212.667,130.167 212.667,165.833 212,201.5C 204.486,214.442 194.319,216.942 181.5,209C 179.348,206.531 177.848,203.698 177,200.5C 176.667,166.833 176.333,133.167 176,99.5C 169.829,63.9961 148.996,43.1627 113.5,37C 69.257,36.2342 43.4237,57.7342 36,101.5C 35.6667,134.833 35.3333,168.167 35,201.5C 27.486,214.442 17.3193,216.942 4.5,209C 2.41499,206.318 0.748322,203.484 -0.5,200.5 Z"></path></g>
<g><path style="opacity:0.983" fill="#181919" d="M 340.5,0.5 C 386.787,-2.93943 422.287,14.7272 447,53.5C 462.682,84.2718 464.682,115.938 453,148.5C 433.144,189.994 400.144,211.994 354,214.5C 307.856,211.994 274.856,189.994 255,148.5C 238.556,102.115 247.723,61.6152 282.5,27C 299.354,12.6632 318.687,3.82989 340.5,0.5 Z M 347.5,54.5 C 378.662,53.8458 398.162,68.5124 406,98.5C 408.6,125.813 397.433,144.98 372.5,156C 346.172,163.78 325.006,156.613 309,134.5C 295.41,107.112 300.244,83.6123 323.5,64C 331.017,59.3334 339.017,56.1667 347.5,54.5 Z"></path></g>
<g><path style="opacity:0.98" fill="#181919" d="M 497.5,0.5 C 512.5,-1.58488 523.334,4.08179 530,17.5C 531.304,49.7858 531.971,82.1191 532,114.5C 538.54,142.202 556.04,157.202 584.5,159.5C 608.139,157.776 624.639,146.11 634,124.5C 634.92,121.899 635.587,119.232 636,116.5C 636.333,86.1667 636.667,55.8333 637,25.5C 638.973,9.52561 647.973,1.19227 664,0.5C 679.128,0.960978 688.128,8.62765 691,23.5C 691.667,53.8333 691.667,84.1667 691,114.5C 685.469,161.697 660.302,193.197 615.5,209C 564.169,221.394 523.336,206.227 493,163.5C 484.896,150.282 479.896,135.949 478,120.5C 477.333,87.1667 477.333,53.8333 478,20.5C 481.351,10.6498 487.851,3.98314 497.5,0.5 Z"></path></g>
<g><path style="opacity:0.975" fill="#181919" d="M 801.5,0.5 C 847.909,-2.54664 883.409,15.4534 908,54.5C 915.353,67.5593 919.686,81.5593 921,96.5C 921.667,131.167 921.667,165.833 921,200.5C 918.06,208.978 912.06,213.311 903,213.5C 894.47,213.413 888.803,209.413 886,201.5C 885.667,196.833 885.333,192.167 885,187.5C 855.963,211.044 823.129,218.544 786.5,210C 741.308,195.809 715.142,165.309 708,118.5C 705.073,67.8351 726.24,31.3351 771.5,9C 781.276,4.89357 791.276,2.06024 801.5,0.5 Z M 806.5,36.5 C 845.065,35.5982 870.565,53.2648 883,89.5C 889.585,128.834 874.751,156.668 838.5,173C 798.674,183.621 769.174,170.788 750,134.5C 738.08,98.5985 747.246,69.4318 777.5,47C 786.667,41.7326 796.334,38.2326 806.5,36.5 Z"></path></g>
<g><path style="opacity:0.979" fill="#181919" d="M 950.5,0.5 C 969.038,-0.792573 977.204,7.87409 975,26.5C 1006.33,0.835728 1041.49,-5.99761 1080.5,6C 1121.03,21.8718 1144.53,51.3718 1151,94.5C 1151.67,130.167 1151.67,165.833 1151,201.5C 1145.61,212.412 1137.11,215.912 1125.5,212C 1120.58,209.673 1117.41,205.84 1116,200.5C 1115.67,166.833 1115.33,133.167 1115,99.5C 1107.71,60.376 1084.21,39.376 1044.5,36.5C 1004.48,40.0161 981.314,61.6828 975,101.5C 974.667,134.833 974.333,168.167 974,201.5C 969.576,211.296 962.076,215.129 951.5,213C 944.667,211.5 940.5,207.333 939,200.5C 938.333,138.167 938.333,75.8333 939,13.5C 940.617,7.05784 944.45,2.72451 950.5,0.5 Z"></path></g>
<g><path style="opacity:0.981" fill="#8ac64c" d="M 478.5,360.5 C 472.167,360.5 465.833,360.5 459.5,360.5C 379.705,357.079 310.538,328.412 252,274.5C 245.523,262.705 246.19,251.372 254,240.5C 264.239,230.901 275.739,229.068 288.5,235C 362.175,299.916 446.841,320.25 542.5,296C 582.708,284.24 618.041,264.24 648.5,236C 662.077,228.739 674.244,230.573 685,241.5C 690.648,250.153 691.981,259.487 689,269.5C 685.926,275.243 681.759,280.076 676.5,284C 619.196,331.608 553.196,357.108 478.5,360.5 Z"></path></g>
</svg><style>@media (prefers-color-scheme: light) { :root { filter: none; } }
@media (prefers-color-scheme: dark) { :root { filter: none; } }
</style></svg>